<svg id="svg" version="1.1" xmlns="http://www.w3.org/2000/svg" xmlns:xlink="http://www.w3.org/1999/xlink" width="400" height="125.7588053887356" viewBox="0, 0, 400,125.7588053887356"><g id="svgg"><path id="path0" d="M187.276 45.690 C 186.832 45.756,186.151 45.853,185.762 45.906 C 183.233 46.249,179.835 47.566,177.221 49.215 C 176.870 49.437,176.530 49.632,176.465 49.649 C 176.400 49.666,176.134 49.883,175.875 50.131 C 175.616 50.380,174.994 50.958,174.493 51.417 C 173.621 52.214,172.000 53.946,172.000 54.079 C 172.000 54.114,171.712 54.580,171.361 55.113 C 168.352 59.679,167.349 65.772,168.579 72.016 C 169.363 75.997,171.969 80.189,175.616 83.333 C 177.003 84.529,181.626 87.000,182.476 87.000 C 182.569 87.000,182.856 87.086,183.114 87.190 C 183.372 87.295,183.696 87.400,183.833 87.423 C 183.971 87.446,184.496 87.552,185.000 87.658 C 194.027 89.554,203.205 85.734,206.895 78.545 L 207.171 78.008 204.377 76.666 C 202.841 75.928,201.149 75.110,200.619 74.848 L 199.654 74.372 199.326 75.014 C 197.507 78.579,192.040 81.039,187.833 80.184 C 187.329 80.081,186.729 79.966,186.500 79.928 C 184.926 79.665,182.360 78.177,180.814 76.631 C 177.958 73.775,176.425 68.493,177.246 64.333 C 177.318 63.967,177.523 63.068,177.588 62.833 C 177.600 62.788,177.671 62.525,177.744 62.250 C 179.094 57.203,184.236 53.414,189.798 53.370 C 191.067 53.360,191.621 53.426,192.750 53.724 C 195.270 54.388,197.682 56.168,199.153 58.449 L 199.711 59.315 201.230 58.566 C 202.066 58.154,203.031 57.666,203.375 57.481 C 203.719 57.297,204.001 57.206,204.003 57.281 C 204.004 57.356,204.060 57.334,204.128 57.233 C 204.195 57.133,204.906 56.731,205.708 56.341 C 206.510 55.951,207.167 55.598,207.167 55.558 C 207.167 55.179,204.791 51.996,203.676 50.882 C 201.235 48.441,197.261 46.382,194.083 45.912 C 193.717 45.858,193.270 45.771,193.091 45.718 C 192.598 45.574,188.197 45.552,187.276 45.690 M212.500 66.833 L 212.500 87.500 216.917 87.500 L 221.333 87.500 221.333 80.167 L 221.333 72.833 224.550 72.833 L 227.767 72.833 228.129 73.542 C 228.692 74.646,229.931 76.936,230.385 77.713 C 230.611 78.100,231.021 78.829,231.297 79.333 C 231.573 79.837,232.694 81.862,233.787 83.833 L 235.776 87.417 240.805 87.461 C 243.570 87.485,245.833 87.465,245.833 87.416 C 245.833 87.368,245.510 86.785,245.114 86.122 C 244.719 85.459,243.956 84.167,243.419 83.250 C 242.883 82.333,242.167 81.133,241.828 80.583 C 241.490 80.033,240.834 78.946,240.371 78.167 C 239.908 77.387,238.885 75.668,238.098 74.347 C 236.454 71.586,236.500 71.729,237.208 71.578 C 240.580 70.859,244.577 66.679,245.252 63.167 C 246.686 55.705,243.803 49.710,237.637 47.332 C 234.846 46.256,233.826 46.178,222.292 46.172 L 212.500 46.167 212.500 66.833 M252.167 66.833 L 252.167 87.500 266.750 87.500 L 281.333 87.500 281.333 83.583 L 281.333 79.667 271.167 79.667 L 261.000 79.667 261.000 75.000 L 261.000 70.333 271.000 70.333 L 281.000 70.333 281.000 66.500 L 281.000 62.667 271.000 62.667 L 261.000 62.667 261.000 58.333 L 261.000 54.000 271.167 54.000 L 281.333 54.000 281.333 50.083 L 281.333 46.167 266.750 46.167 L 252.167 46.167 252.167 66.833 M299.496 47.042 C 299.286 47.523,299.107 47.954,299.097 48.000 C 299.051 48.229,298.428 49.840,298.130 50.500 C 297.944 50.913,297.770 51.362,297.742 51.500 C 297.715 51.637,297.681 51.750,297.667 51.750 C 297.653 51.750,297.618 51.862,297.589 52.000 C 297.561 52.137,296.749 54.275,295.786 56.750 C 294.823 59.225,293.512 62.600,292.874 64.250 C 292.236 65.900,291.654 67.400,291.581 67.583 C 291.509 67.767,291.432 67.992,291.411 68.083 C 291.389 68.175,289.945 71.925,288.201 76.417 C 284.797 85.184,284.000 87.271,284.000 87.414 C 284.000 87.464,286.222 87.485,288.937 87.461 L 293.874 87.417 294.610 85.417 C 295.015 84.317,295.568 82.875,295.840 82.212 C 296.111 81.550,296.333 80.893,296.333 80.754 C 296.333 80.335,314.135 80.373,314.274 80.792 C 314.327 80.952,314.725 82.021,315.159 83.167 C 315.593 84.313,316.131 85.737,316.356 86.333 L 316.764 87.417 321.734 87.461 C 326.427 87.503,326.698 87.489,326.585 87.211 C 326.519 87.049,326.332 86.542,326.169 86.083 C 326.005 85.625,324.475 81.666,322.769 77.285 C 321.063 72.905,319.667 69.289,319.667 69.251 C 319.667 69.212,318.389 65.896,316.827 61.882 C 315.265 57.868,313.963 54.471,313.935 54.333 C 313.907 54.196,313.822 53.933,313.747 53.750 C 312.729 51.268,312.333 50.219,312.333 49.999 C 312.333 49.853,312.269 49.662,312.190 49.575 C 312.111 49.488,311.761 48.685,311.412 47.792 L 310.777 46.167 305.327 46.167 L 299.878 46.167 299.496 47.042 M330.500 66.833 L 330.500 87.500 334.917 87.500 L 339.333 87.500 339.333 80.167 L 339.333 72.833 342.542 72.833 L 345.750 72.833 349.813 80.167 L 353.875 87.500 358.872 87.500 C 363.527 87.500,363.861 87.480,363.759 87.214 C 363.699 87.056,362.686 85.313,361.508 83.339 C 360.330 81.365,359.218 79.487,359.038 79.167 C 358.742 78.641,358.062 77.505,355.483 73.229 C 354.514 71.623,354.531 71.722,355.208 71.577 C 365.215 69.423,366.740 52.988,357.385 48.116 C 353.876 46.289,352.797 46.167,340.173 46.167 L 330.500 46.167 330.500 66.833 M367.167 50.083 L 367.167 54.000 373.167 54.000 L 379.167 54.000 379.167 70.750 L 379.167 87.500 383.583 87.500 L 388.000 87.500 388.000 70.750 L 388.000 54.000 394.000 54.000 L 400.000 54.000 400.000 50.083 L 400.000 46.167 383.583 46.167 L 367.167 46.167 367.167 50.083 M233.557 54.653 C 238.255 57.039,237.407 63.705,232.250 64.935 C 231.975 65.000,229.406 65.085,226.542 65.123 L 221.333 65.192 221.333 59.586 L 221.333 53.980 226.884 54.031 L 232.435 54.083 233.557 54.653 M350.583 54.200 C 351.333 54.433,351.807 54.656,351.912 54.826 C 351.973 54.925,352.085 54.967,352.160 54.921 C 352.362 54.796,353.575 56.067,354.113 56.967 C 354.802 58.121,354.783 60.813,354.077 62.179 C 353.390 63.508,352.072 64.438,350.149 64.949 C 349.930 65.008,347.406 65.086,344.542 65.124 L 339.333 65.192 339.333 59.589 L 339.333 53.987 344.792 54.042 C 347.794 54.072,350.400 54.143,350.583 54.200 M305.733 56.132 C 305.866 56.564,306.323 57.854,306.750 59.000 C 307.176 60.146,307.626 61.383,307.751 61.750 C 307.876 62.117,308.157 62.904,308.375 63.500 C 308.593 64.096,308.782 64.621,308.794 64.667 C 308.806 64.712,308.932 65.029,309.074 65.370 C 309.217 65.710,309.333 66.056,309.333 66.138 C 309.333 66.220,309.554 66.823,309.824 67.477 C 310.094 68.131,310.285 68.667,310.249 68.667 C 310.213 68.667,310.302 68.948,310.447 69.292 C 310.837 70.217,311.667 72.530,311.667 72.692 C 311.667 72.770,308.779 72.833,305.251 72.833 L 298.835 72.833 299.176 71.958 C 299.364 71.477,299.547 70.971,299.583 70.833 C 299.619 70.696,300.074 69.421,300.594 68.000 C 301.993 64.182,302.599 62.508,303.518 59.927 C 303.973 58.649,304.426 57.505,304.526 57.385 C 304.626 57.265,304.659 57.167,304.599 57.167 C 304.540 57.167,304.607 56.942,304.749 56.668 C 304.891 56.394,305.004 56.132,305.000 56.084 C 304.925 55.072,305.416 55.104,305.733 56.132 " stroke="none" fill="#1e293b" fill-rule="evenodd"></path><path id="path1" d="M0.054 39.873 C 0.089 61.714,0.155 79.808,0.200 80.083 C 0.245 80.358,0.337 80.996,0.405 81.500 C 0.472 82.004,0.566 82.642,0.615 82.917 C 0.664 83.192,0.726 83.567,0.753 83.750 C 2.904 98.420,14.904 110.997,33.667 118.246 C 40.276 120.799,50.035 123.269,57.417 124.256 C 57.692 124.293,58.179 124.364,58.500 124.413 C 58.821 124.463,59.421 124.543,59.833 124.590 C 60.246 124.637,60.696 124.709,60.833 124.749 C 61.099 124.827,61.614 124.878,65.167 125.178 C 66.404 125.283,67.642 125.407,67.917 125.455 C 68.192 125.502,86.198 125.572,107.931 125.610 L 147.446 125.679 147.527 106.048 C 147.611 85.788,147.450 46.825,147.277 45.500 C 147.223 45.087,147.144 44.528,147.100 44.257 C 147.057 43.986,146.965 43.386,146.896 42.924 C 146.827 42.461,146.761 42.046,146.751 42.000 C 146.740 41.954,146.678 41.692,146.613 41.417 C 146.548 41.142,146.463 40.767,146.425 40.583 C 143.839 28.221,134.360 17.419,120.000 10.468 C 115.841 8.455,108.286 5.603,105.250 4.900 C 105.158 4.879,103.583 4.474,101.750 4.000 C 99.917 3.526,98.229 3.110,98.000 3.075 C 97.603 3.015,97.265 2.949,96.333 2.750 C 95.390 2.549,94.961 2.470,92.250 2.003 C 89.556 1.539,88.905 1.441,87.167 1.234 C 86.754 1.185,86.042 1.078,85.583 0.997 C 85.125 0.917,84.188 0.802,83.500 0.743 C 82.813 0.685,81.200 0.540,79.917 0.421 C 78.098 0.253,69.033 0.201,38.787 0.185 L -0.010 0.163 0.054 39.873 M147.833 8.914 C 142.106 10.448,140.131 17.652,144.302 21.794 C 150.225 27.675,159.815 21.283,156.818 13.452 C 155.540 10.111,151.320 7.980,147.833 8.914 M152.577 10.485 C 159.807 14.048,155.122 25.403,147.583 22.585 C 141.607 20.352,141.929 11.153,148.021 10.080 C 148.325 10.026,148.613 9.940,148.662 9.889 C 148.931 9.603,151.618 10.012,152.577 10.485 M146.833 16.417 L 146.833 20.833 147.417 20.833 L 148.000 20.833 148.000 19.083 L 148.000 17.333 148.808 17.333 L 149.616 17.333 150.738 19.083 L 151.860 20.833 152.601 20.833 L 153.342 20.833 152.333 19.333 C 151.779 18.508,151.383 17.831,151.454 17.828 C 151.525 17.825,151.444 17.742,151.275 17.644 C 150.999 17.484,151.053 17.415,151.775 17.000 C 153.772 15.852,153.714 13.378,151.664 12.332 C 151.117 12.053,150.681 12.000,148.923 12.000 L 146.833 12.000 146.833 16.417 M151.084 13.262 C 153.063 14.201,151.975 16.167,149.478 16.167 L 148.000 16.167 148.000 14.583 L 148.000 13.000 149.266 13.000 C 150.072 13.000,150.734 13.095,151.084 13.262 M78.833 15.998 C 79.612 16.079,80.775 16.188,81.417 16.241 C 82.860 16.361,83.930 16.476,84.583 16.582 C 84.858 16.626,85.421 16.702,85.833 16.751 C 86.246 16.799,87.258 16.957,88.083 17.100 C 88.908 17.244,89.808 17.396,90.083 17.438 C 90.477 17.497,91.496 17.698,92.500 17.914 C 92.546 17.924,92.883 17.990,93.250 18.062 C 96.408 18.677,103.497 20.702,105.583 21.585 C 105.858 21.702,106.383 21.910,106.750 22.047 C 108.805 22.820,113.730 25.221,115.325 26.229 L 116.234 26.802 115.575 26.966 C 115.213 27.056,113.867 27.371,112.583 27.667 C 111.300 27.963,109.050 28.502,107.583 28.867 C 106.117 29.231,104.747 29.562,104.539 29.602 C 104.331 29.642,103.319 29.930,102.289 30.243 C 89.965 33.985,80.745 38.729,68.842 47.451 C 54.944 57.635,42.620 72.488,34.997 88.239 C 33.018 92.329,32.969 92.444,31.352 96.769 L 30.409 99.287 28.508 97.872 C 24.834 95.137,22.278 92.345,19.700 88.250 C 18.333 86.079,16.561 81.359,16.243 79.044 C 16.203 78.747,16.096 78.184,16.006 77.794 C 15.903 77.345,15.841 65.793,15.837 46.457 L 15.832 15.831 46.624 15.842 C 63.560 15.847,78.054 15.918,78.833 15.998 M129.425 41.392 C 130.216 43.340,131.190 46.591,131.429 48.083 C 131.503 48.542,131.597 49.067,131.638 49.250 C 131.678 49.433,131.743 54.101,131.781 59.623 L 131.850 69.663 99.445 69.666 L 67.040 69.668 68.978 67.779 C 76.644 60.308,86.460 53.532,95.482 49.484 C 96.546 49.007,97.717 48.481,98.083 48.317 C 101.011 47.001,106.808 44.963,110.500 43.949 C 112.487 43.404,113.068 43.262,116.333 42.518 C 118.185 42.097,122.923 41.319,125.123 41.076 C 125.560 41.027,126.404 40.932,127.000 40.864 C 129.125 40.622,129.111 40.619,129.425 41.392 M131.833 98.006 L 131.833 110.679 100.208 110.616 C 82.815 110.581,68.246 110.507,67.833 110.451 C 67.421 110.395,66.596 110.303,66.000 110.246 C 64.322 110.085,63.633 110.008,63.000 109.910 C 62.679 109.860,62.154 109.787,61.833 109.748 C 57.063 109.167,51.737 108.057,47.083 106.673 C 46.442 106.482,45.779 106.293,45.612 106.253 C 44.456 105.978,44.463 106.042,45.333 103.873 C 45.700 102.960,46.000 102.168,46.000 102.113 C 46.000 102.014,47.242 99.064,47.871 97.667 C 49.572 93.893,51.792 89.740,54.042 86.125 L 54.535 85.333 93.184 85.333 L 131.833 85.333 131.833 98.006 " stroke="none" fill="#12B0DF" fill-rule="evenodd"></path><path id="path2" d="M18.292 0.125 C 28.398 0.149,44.935 0.149,55.042 0.125 C 65.148 0.101,56.879 0.082,36.667 0.082 C 16.454 0.082,8.185 0.101,18.292 0.125 M155.167 10.917 C 155.478 11.237,155.770 11.500,155.815 11.500 C 155.861 11.500,155.644 11.237,155.333 10.917 C 155.022 10.596,154.730 10.333,154.685 10.333 C 154.639 10.333,154.856 10.596,155.167 10.917 M146.742 12.044 C 146.697 12.160,146.682 14.204,146.708 16.586 L 146.756 20.917 146.795 16.464 L 146.833 12.011 148.792 11.958 L 150.750 11.905 148.786 11.869 C 147.329 11.843,146.802 11.888,146.742 12.044 M148.542 13.121 C 148.885 13.157,149.448 13.157,149.792 13.121 C 150.135 13.085,149.854 13.056,149.167 13.056 C 148.479 13.056,148.198 13.085,148.542 13.121 M31.042 15.958 C 39.452 15.982,53.215 15.982,61.625 15.958 C 70.035 15.934,63.154 15.915,46.333 15.915 C 29.512 15.915,22.631 15.934,31.042 15.958 M143.209 16.417 C 143.211 16.783,143.245 16.914,143.285 16.706 C 143.324 16.499,143.323 16.199,143.281 16.040 C 143.239 15.880,143.207 16.050,143.209 16.417 M148.377 17.453 C 148.631 17.491,149.006 17.490,149.211 17.451 C 149.416 17.411,149.208 17.380,148.750 17.381 C 148.292 17.382,148.124 17.415,148.377 17.453 M212.414 66.833 C 212.414 78.246,212.434 82.915,212.458 77.208 C 212.483 71.502,212.483 62.165,212.458 56.458 C 212.434 50.752,212.414 55.421,212.414 66.833 M281.405 50.083 C 281.405 52.283,281.429 53.160,281.458 52.032 C 281.487 50.904,281.487 49.104,281.458 48.032 C 281.429 46.960,281.405 47.883,281.405 50.083 M147.556 49.667 C 147.556 50.354,147.585 50.635,147.621 50.292 C 147.657 49.948,147.657 49.385,147.621 49.042 C 147.585 48.698,147.556 48.979,147.556 49.667 M236.539 59.500 C 236.539 59.821,236.573 59.952,236.615 59.792 C 236.657 59.631,236.657 59.369,236.615 59.208 C 236.573 59.048,236.539 59.179,236.539 59.500 M53.909 60.542 L 53.250 61.250 53.958 60.591 C 54.617 59.978,54.743 59.833,54.617 59.833 C 54.590 59.833,54.271 60.152,53.909 60.542 M70.158 66.625 L 69.583 67.250 70.208 66.676 C 70.552 66.360,70.833 66.078,70.833 66.051 C 70.833 65.923,70.692 66.043,70.158 66.625 M177.048 66.917 C 177.049 67.375,177.081 67.543,177.120 67.289 C 177.158 67.036,177.157 66.661,177.117 66.456 C 177.078 66.251,177.046 66.458,177.048 66.917 M265.958 70.458 C 268.731 70.484,273.269 70.484,276.042 70.458 C 278.815 70.433,276.546 70.412,271.000 70.412 C 265.454 70.412,263.185 70.433,265.958 70.458 M281.405 83.583 C 281.405 85.783,281.429 86.660,281.458 85.532 C 281.487 84.404,281.487 82.604,281.458 81.532 C 281.429 80.460,281.405 81.383,281.405 83.583 M203.573 82.875 L 203.083 83.417 203.625 82.927 C 204.130 82.471,204.243 82.333,204.115 82.333 C 204.086 82.333,203.842 82.577,203.573 82.875 M54.442 85.458 C 54.399 85.527,54.976 85.563,55.724 85.538 C 58.174 85.458,58.451 85.392,56.468 85.362 C 55.396 85.346,54.485 85.390,54.442 85.458 M24.667 94.583 C 25.257 95.179,25.778 95.667,25.824 95.667 C 25.870 95.667,25.424 95.179,24.833 94.583 C 24.243 93.987,23.722 93.500,23.676 93.500 C 23.630 93.500,24.076 93.987,24.667 94.583 M10.333 103.379 C 10.333 103.404,10.915 103.986,11.625 104.671 L 12.917 105.917 11.671 104.625 C 10.514 103.425,10.333 103.257,10.333 103.379 M86.305 110.625 C 94.677 110.649,108.327 110.649,116.638 110.625 C 124.950 110.601,118.100 110.582,101.417 110.582 C 84.733 110.582,77.933 110.601,86.305 110.625 M69.708 125.615 C 69.869 125.657,70.131 125.657,70.292 125.615 C 70.452 125.573,70.321 125.539,70.000 125.539 C 69.679 125.539,69.548 125.573,69.708 125.615 " stroke="none" fill="#12B0DF" fill-rule="evenodd"></path><path id="path3" d="M149.460 24.118 C 149.668 24.158,149.968 24.156,150.127 24.115 C 150.286 24.073,150.117 24.040,149.750 24.042 C 149.383 24.044,149.253 24.078,149.460 24.118 M147.580 66.667 C 147.580 75.421,147.600 79.002,147.625 74.625 C 147.650 70.248,147.650 63.085,147.625 58.708 C 147.600 54.331,147.580 57.913,147.580 66.667 M83.042 69.625 C 91.910 69.649,106.423 69.649,115.292 69.625 C 124.160 69.601,116.904 69.582,99.167 69.582 C 81.429 69.582,74.173 69.601,83.042 69.625 M147.580 111.667 C 147.580 119.412,147.600 122.581,147.625 118.708 C 147.650 114.835,147.650 108.498,147.625 104.625 C 147.600 100.752,147.580 103.921,147.580 111.667 " stroke="none" fill="#12B0DF" fill-rule="evenodd"></path><path id="path4" d="M188.542 45.615 C 188.702 45.657,188.965 45.657,189.125 45.615 C 189.285 45.573,189.154 45.539,188.833 45.539 C 188.512 45.539,188.381 45.573,188.542 45.615 M367.071 50.250 C 367.072 52.358,367.095 53.198,367.125 52.116 C 367.154 51.033,367.154 49.308,367.124 48.282 C 367.095 47.256,367.071 48.142,367.071 50.250 M174.740 51.042 L 174.250 51.583 174.792 51.094 C 175.297 50.638,175.410 50.500,175.281 50.500 C 175.252 50.500,175.009 50.744,174.740 51.042 M388.080 70.583 C 388.080 79.750,388.100 83.524,388.125 78.971 C 388.150 74.418,388.150 66.918,388.125 62.304 C 388.100 57.691,388.080 61.417,388.080 70.583 M265.958 62.625 C 268.731 62.651,273.269 62.651,276.042 62.625 C 278.815 62.599,276.546 62.578,271.000 62.578 C 265.454 62.578,263.185 62.599,265.958 62.625 M223.708 65.125 C 225.060 65.153,227.273 65.153,228.625 65.125 C 229.977 65.097,228.871 65.074,226.167 65.074 C 223.463 65.074,222.356 65.097,223.708 65.125 M341.708 65.125 C 343.060 65.153,345.273 65.153,346.625 65.125 C 347.977 65.097,346.871 65.074,344.167 65.074 C 341.462 65.074,340.356 65.097,341.708 65.125 M301.947 72.791 C 303.706 72.818,306.631 72.818,308.447 72.791 C 310.264 72.765,308.825 72.742,305.250 72.742 C 301.675 72.742,300.189 72.764,301.947 72.791 " stroke="none" fill="#1e293b" fill-rule="evenodd"></path></g></svg>